# xmcd CD database file
#
# Track frame offsets:
#	150
#	20559
#	41051
#	60319
#	78732
#	100057
#	117764
#	136399
#	156066
#	186885
#	209538
#	225015
#	242812
#	262274
#	282651
#	303902
#	331109
#
# Disc length: 4636 seconds
#
# Revision: 16
# Processed by: cddbd v1.5.1PL0 Copyright (c) Steve Scherf et al.
# Submitted via: CDex 1.51
#
DISCID=ea121a11
DTITLE=Chris Rea - the best of Chris Rea
DYEAR=1994
DGENRE=Pop
TTITLE0=the road to hell
TTITLE1=Josephine
TTITLE2=let's dance
TTITLE3=fool (if you think it's over)
TTITLE4=auberge
TTITLE5=Julia
TTITLE6=stainsby girls
TTITLE7=if you were me (duet with Elton John)
TTITLE8=on the beach
TTITLE9=looking for the summer
TTITLE10=I can hear your heartbeat
TTITLE11=you can go your own way
TTITLE12=god's great banana skin
TTITLE13=winter song
TTITLE14=gone fishing
TTITLE15=tell me there's a heaven
TTITLE16=three little green candles
EXTD=YEAR: 1994
EXTT0=
EXTT1=
EXTT2=
EXTT3=
EXTT4=
EXTT5=
EXTT6=
EXTT7=
EXTT8=
EXTT9=
EXTT10=
EXTT11=
EXTT12=
EXTT13=
EXTT14=
EXTT15=
EXTT16=
PLAYORDER=
